<svg width="22" height="15" viewBox="0 0 22 15" fill="none" xmlns="http://www.w3.org/2000/svg">
<path d="M20.447 11.7034C19.9539 11.1511 19.1716 10.5493 18.6403 10.3111C18.4761 10.2385 17.2711 9.85853 15.9563 9.46203L13.5678 8.74503L10.3666 6.01389C8.60787 4.51313 7.10665 3.24341 7.02999 3.19566C6.63444 2.95579 6.15741 3.37424 6.27666 3.85582C6.29992 3.96028 6.66005 4.56221 7.26508 5.52717C7.78428 6.35823 8.21151 7.05485 8.20955 7.08198C8.20808 7.10233 7.3621 6.87029 6.32509 6.55304L4.44356 5.9834L4.37965 5.7593C4.34562 5.63341 4.13087 4.76791 3.89935 3.83608C3.46105 2.05653 3.28082 1.4808 3.01645 1.00341C2.68131 0.396869 2.24755 0.174088 1.82527 0.389199C1.61107 0.496483 1.37237 0.772247 1.2538 1.04843C1.17173 1.24594 0.121824 6.64787 0.0857902 7.06107C0.0677732 7.26767 0.0855271 7.32044 0.203818 7.47429C0.333375 7.64278 0.395953 7.67222 1.06815 7.87861C1.68904 8.07021 2.10406 8.25378 3.9912 9.17205C5.20271 9.76076 6.19305 10.2548 6.19207 10.2683C6.19109 10.2819 5.70415 10.5391 5.10588 10.8444C4.50762 11.1497 3.97818 11.4406 3.92196 11.4936C3.77977 11.6278 3.7097 11.9151 3.76896 12.1183C3.83287 12.3424 4.03407 12.5002 4.26112 12.5135C4.35346 12.5149 5.45113 12.3767 6.69919 12.2042C8.8404 11.9094 9.05435 11.8909 10.1723 11.8979L11.3704 11.9052L14.458 12.8412C16.1526 13.3533 18.1574 13.9646 18.9083 14.1916C19.6619 14.4223 20.3685 14.6215 20.4754 14.6344C20.7934 14.6694 21.024 14.5909 21.1956 14.3911C21.499 14.0289 21.5207 13.6861 21.2865 13.0476C21.1888 12.7795 20.7978 12.0929 20.6466 11.9259C20.6123 11.8887 20.524 11.7888 20.447 11.7034Z" fill="#3392FF"/>
</svg>
